<svg width="18" height="18" viewBox="0 0 18 18" fill="none" xmlns="http://www.w3.org/2000/svg">
<g clip-path="url(#clip0_6254_549)">
<path d="M13.5335 4.14696C12.71 3.07746 11.8587 1.97196 11.2565 0.775713C11.0022 0.269463 10.4967 -0.0357869 9.94247 -0.00578689C9.40772 0.0249631 8.95697 0.366213 8.76572 0.885213C8.50922 1.58496 8.25047 2.86371 8.25047 4.14396C8.25047 5.80071 8.76647 6.91971 9.18047 7.81971C9.53222 8.58246 9.80972 9.18471 9.73997 9.95496C9.67247 10.6892 9.03047 11.2562 8.21972 11.2502C6.28097 11.2285 5.78747 8.77296 5.71622 6.71796C5.69222 6.04521 5.23847 5.47671 4.58747 5.30421C3.93647 5.13246 3.25997 5.40321 2.90672 5.97621C2.00072 7.44696 1.50122 9.05346 1.50122 10.4995C1.50122 14.635 4.89347 17.9995 9.00572 17.9995C13.139 17.9747 16.5012 14.6095 16.5012 10.5122C16.5432 8.05521 15.0132 6.06846 13.5335 4.14696Z" fill="url(#paint0_radial_6254_549)"/>
</g>
<defs>
<radialGradient id="paint0_radial_6254_549" cx="0" cy="0" r="1" gradientUnits="userSpaceOnUse" gradientTransform="translate(9.00049 18.001) rotate(-90) scale(19.6875 105)">
<stop stop-color="#DD3C3C"/>
<stop offset="1" stop-color="#FFD976"/>
</radialGradient>
<clipPath id="clip0_6254_549">
<rect width="18" height="18" fill="white"/>
</clipPath>
</defs>
</svg>
