<svg width="24" height="24" viewBox="0 0 24 24" fill="none" xmlns="http://www.w3.org/2000/svg">
<path fill-rule="evenodd" clip-rule="evenodd" d="M13.1656 3.73712L15.0945 7.59091C15.2836 7.96924 15.6485 8.23158 16.0716 8.29229L20.3867 8.91345C21.4529 9.06738 21.8771 10.3596 21.1056 11.1L17.9852 14.0984C17.6785 14.3933 17.539 14.8172 17.6115 15.2334L18.3479 19.4667C18.5293 20.5138 17.4148 21.3128 16.4618 20.8174L12.6051 18.8173C12.227 18.6211 11.7741 18.6211 11.3949 18.8173L7.53817 20.8174C6.58524 21.3128 5.47075 20.5138 5.6532 19.4667L6.3885 15.2334C6.46105 14.8172 6.32146 14.3933 6.01481 14.0984L2.89444 11.1C2.12287 10.3596 2.54712 9.06738 3.61326 8.91345L7.92835 8.29229C8.35151 8.23158 8.71751 7.96924 8.90656 7.59091L10.8344 3.73712C11.3114 2.78424 12.6886 2.78424 13.1656 3.73712Z" fill="#D9D9D9"/>
<path fill-rule="evenodd" clip-rule="evenodd" d="M13.1656 3.73712L15.0945 7.59091C15.2836 7.96924 15.6485 8.23158 16.0716 8.29229L20.3867 8.91345C21.4529 9.06738 21.8771 10.3596 21.1056 11.1L17.9852 14.0984C17.6785 14.3933 17.539 14.8172 17.6115 15.2334L18.3479 19.4667C18.5293 20.5138 17.4148 21.3128 16.4618 20.8174L12.6051 18.8173C12.227 18.6211 11.7741 18.6211 11.3949 18.8173L7.53817 20.8174C6.58524 21.3128 5.47075 20.5138 5.6532 19.4667L6.3885 15.2334C6.46105 14.8172 6.32146 14.3933 6.01481 14.0984L2.89444 11.1C2.12287 10.3596 2.54712 9.06738 3.61326 8.91345L7.92835 8.29229C8.35151 8.23158 8.71751 7.96924 8.90656 7.59091L10.8344 3.73712C11.3114 2.78424 12.6886 2.78424 13.1656 3.73712Z" fill="url(#paint0_radial_6200_139043)"/>
<defs>
<radialGradient id="paint0_radial_6200_139043" cx="0" cy="0" r="1" gradientUnits="userSpaceOnUse" gradientTransform="translate(11.9985 20.9694) rotate(-90) scale(19.6199 132.993)">
<stop stop-color="#DDBA3C"/>
<stop offset="1" stop-color="#FFD976"/>
</radialGradient>
</defs>
</svg>
