<svg width="14" height="16" viewBox="0 0 14 16" fill="none" xmlns="http://www.w3.org/2000/svg">
<path d="M11.0293 3.6863C10.2973 2.73563 9.54065 1.75296 9.00532 0.689631C8.77932 0.239631 8.32998 -0.0317021 7.83732 -0.00503539C7.36198 0.0222979 6.96132 0.325631 6.79132 0.786965C6.56332 1.40896 6.33332 2.54563 6.33332 3.68363C6.33332 5.1563 6.79198 6.15096 7.15998 6.95096C7.47265 7.62896 7.71932 8.1643 7.65732 8.84896C7.59732 9.50163 7.02665 10.0056 6.30598 10.0003C4.58265 9.98097 4.14398 7.7983 4.08065 5.97163C4.05932 5.37363 3.65598 4.8683 3.07732 4.71496C2.49865 4.5623 1.89732 4.80296 1.58332 5.3123C0.777984 6.61963 0.333984 8.04763 0.333984 9.33296C0.333984 13.009 3.34932 15.9996 7.00465 15.9996C10.6787 15.9776 13.6673 12.9863 13.6673 9.3443C13.7047 7.1603 12.3447 5.3943 11.0293 3.6863ZM6.99598 14.667C4.07598 14.667 1.66665 12.2743 1.66665 9.33363C1.66665 8.30696 2.04998 7.0963 2.74798 6.0183C2.86732 9.42097 4.12532 11.309 6.29132 11.3336H6.32265C7.69665 11.3336 8.86332 10.3016 8.98532 8.97097C9.07998 7.93097 8.71998 7.14963 8.37132 6.39363C8.02465 5.64163 7.66665 4.8643 7.66665 3.6843C7.66665 2.91563 7.79732 2.09496 7.94865 1.54696C8.52398 2.61763 9.25998 3.57363 9.97332 4.50096C11.202 6.09763 12.3627 7.60497 12.334 9.3343C12.334 12.2576 9.93932 14.6496 6.99598 14.667Z" fill="currentColor"/>
</svg>
