<svg width="24" height="24" viewBox="0 0 24 24" fill="none" xmlns="http://www.w3.org/2000/svg">
<g clip-path="url(#clip0_4199_124068)">
<path d="M22.2928 23.7068C22.4878 23.9018 22.7438 23.9997 22.9998 23.9997C23.2557 23.9997 23.5117 23.9018 23.7067 23.7068C24.0978 23.3157 24.0978 22.6838 23.7067 22.2927L16.7289 15.3149L19.7499 10.9999C19.9108 10.7849 19.9998 10.5189 19.9998 10.2499C19.9998 9.56106 19.4388 9.00004 18.7498 9.00004H13.3439L14.244 1.39711C14.247 1.36818 14.249 1.27919 14.249 1.25008C14.2499 0.561252 13.689 0.000228857 13 0.000228857C12.608 0.000228857 12.2339 0.188091 11.978 0.531224L7.9391 6.52506L1.70724 0.293192C1.31613 -0.0977305 0.684251 -0.0977305 0.293329 0.293192C-0.0977763 0.684114 -0.0977763 1.31618 0.293329 1.7071L22.2928 23.7068Z" fill="white"/>
<path d="M4.24993 12.0004C4.08899 12.2154 4 12.4814 4 12.7504C4 13.4394 4.56102 14.0003 5.24985 14.0003H9.66681L8.75478 22.6212C8.75075 22.6472 8.74984 22.7242 8.74984 22.7502C8.74984 23.4392 9.31086 24.0002 9.99987 24.0002C10.3919 24.0002 10.7658 23.8121 11.0137 23.4791L14.6908 18.2263L5.94692 9.48242L4.24993 12.0004Z" fill="white"/>
</g>
<defs>
<clipPath id="clip0_4199_124068">
<rect width="24" height="24" fill="white"/>
</clipPath>
</defs>
</svg>
