<svg width="17" height="24" viewBox="0 0 17 24" fill="none" xmlns="http://www.w3.org/2000/svg">
<path d="M2.23438 14H6.65138L5.73938 22.621C5.73538 22.647 5.73438 22.724 5.73438 22.75C5.73438 23.439 6.29538 24 6.98438 24C7.37638 24 7.75038 23.812 7.99838 23.479L16.7344 11C16.8954 10.785 16.9844 10.519 16.9844 10.25C16.9844 9.561 16.4234 9 15.7344 9H10.3284L11.2284 1.397C11.2314 1.368 11.2334 1.279 11.2334 1.25C11.2344 0.561 10.6734 0 9.98438 0C9.59238 0 9.21838 0.188 8.96238 0.531L1.23438 12C1.07338 12.215 0.984375 12.481 0.984375 12.75C0.984375 13.439 1.54538 14 2.23438 14Z" fill="white"/>
</svg>
