<svg width="108" height="108" viewBox="0 0 108 108" fill="none" xmlns="http://www.w3.org/2000/svg">
<g filter="url(#filter0_d_6116_13386)">
<rect x="30" y="18" width="48" height="48" rx="20" fill="#7680FF" shape-rendering="crispEdges"/>
<g clip-path="url(#clip0_6116_13386)">
<path d="M54 30C51.6266 30 49.3066 30.7038 47.3332 32.0224C45.3598 33.3409 43.8217 35.2151 42.9135 37.4078C42.0052 39.6005 41.7676 42.0133 42.2306 44.3411C42.6936 46.6689 43.8365 48.8071 45.5147 50.4853C47.193 52.1635 49.3312 53.3064 51.6589 53.7694C53.9867 54.2324 56.3995 53.9948 58.5922 53.0866C60.7849 52.1783 62.6591 50.6402 63.9776 48.6668C65.2962 46.6935 66 44.3734 66 42C65.9966 38.8185 64.7312 35.7682 62.4815 33.5185C60.2318 31.2688 57.1815 30.0034 54 30ZM58 43H55V46C55 46.2652 54.8946 46.5196 54.7071 46.7071C54.5196 46.8946 54.2652 47 54 47C53.7348 47 53.4804 46.8946 53.2929 46.7071C53.1054 46.5196 53 46.2652 53 46V43H50C49.7348 43 49.4804 42.8946 49.2929 42.7071C49.1054 42.5196 49 42.2652 49 42C49 41.7348 49.1054 41.4804 49.2929 41.2929C49.4804 41.1054 49.7348 41 50 41H53V38C53 37.7348 53.1054 37.4804 53.2929 37.2929C53.4804 37.1054 53.7348 37 54 37C54.2652 37 54.5196 37.1054 54.7071 37.2929C54.8946 37.4804 55 37.7348 55 38V41H58C58.2652 41 58.5196 41.1054 58.7071 41.2929C58.8946 41.4804 59 41.7348 59 42C59 42.2652 58.8946 42.5196 58.7071 42.7071C58.5196 42.8946 58.2652 43 58 43Z" fill="#FDFDFD"/>
</g>
</g>
<defs>
<filter id="filter0_d_6116_13386" x="0" y="0" width="108" height="108" filterUnits="userSpaceOnUse" color-interpolation-filters="sRGB">
<feFlood flood-opacity="0" result="BackgroundImageFix"/>
<feColorMatrix in="SourceAlpha" type="matrix" values="0 0 0 0 0 0 0 0 0 0 0 0 0 0 0 0 0 0 127 0" result="hardAlpha"/>
<feOffset dy="12"/>
<feGaussianBlur stdDeviation="15"/>
<feComposite in2="hardAlpha" operator="out"/>
<feColorMatrix type="matrix" values="0 0 0 0 0 0 0 0 0 0 0 0 0 0 0 0 0 0 0.2 0"/>
<feBlend mode="normal" in2="BackgroundImageFix" result="effect1_dropShadow_6116_13386"/>
<feBlend mode="normal" in="SourceGraphic" in2="effect1_dropShadow_6116_13386" result="shape"/>
</filter>
<clipPath id="clip0_6116_13386">
<rect width="24" height="24" fill="white" transform="translate(42 30)"/>
</clipPath>
</defs>
</svg>
