<svg width="24" height="24" viewBox="0 0 24 24" fill="none" xmlns="http://www.w3.org/2000/svg">
<g clip-path="url(#clip0_6018_138905)">
<path d="M16.971 10.0065C16.8675 9.8456 16.6898 9.74998 16.4997 9.74998H12.5623V3.56272C12.5623 3.29723 12.3767 3.06774 12.1168 3.01262C11.8525 2.95637 11.5937 3.09249 11.4857 3.33436L6.98588 13.459C6.90826 13.6322 6.92513 13.8347 7.02863 13.9933C7.13213 14.1531 7.30987 14.2498 7.49999 14.2498H11.4373V20.4371C11.4373 20.7025 11.623 20.932 11.8828 20.9872C11.9222 20.995 11.9616 20.9995 11.9998 20.9995C12.2181 20.9995 12.4217 20.8724 12.5139 20.6654L17.0138 10.5408C17.0903 10.3665 17.0756 10.1662 16.971 10.0065Z" fill="#FFC107"/>
</g>
<defs>
<clipPath id="clip0_6018_138905">
<rect width="10.1245" height="17.9995" fill="white" transform="translate(6.9375 3)"/>
</clipPath>
</defs>
</svg>
