<svg width="18" height="18" viewBox="0 0 18 18" fill="none" xmlns="http://www.w3.org/2000/svg">
<path d="M15.6665 9.00033C15.6665 12.6822 12.6817 15.667 8.99984 15.667M15.6665 9.00033C15.6665 5.31843 12.6817 2.33366 8.99984 2.33366M15.6665 9.00033H17.3332M8.99984 15.667C5.31794 15.667 2.33317 12.6822 2.33317 9.00033M8.99984 15.667V17.3337M2.33317 9.00033C2.33317 5.31843 5.31794 2.33366 8.99984 2.33366M2.33317 9.00033H0.666504M8.99984 2.33366V0.666992M11.4998 9.00033C11.4998 10.381 10.3805 11.5003 8.99984 11.5003C7.61913 11.5003 6.49984 10.381 6.49984 9.00033C6.49984 7.61961 7.61913 6.50033 8.99984 6.50033C10.3805 6.50033 11.4998 7.61961 11.4998 9.00033Z" stroke="#9E9E9E" stroke-width="1.25" stroke-linecap="round" stroke-linejoin="round"/>
</svg>
