<svg width="20" height="18" viewBox="0 0 20 18" fill="none" xmlns="http://www.w3.org/2000/svg">
<path fill-rule="evenodd" clip-rule="evenodd" d="M11.0386 1.63523L12.7585 5.07123C12.927 5.40855 13.2524 5.64245 13.6296 5.69657L17.4769 6.25039C18.4275 6.38764 18.8057 7.53974 18.1178 8.19987L15.3357 10.8733C15.0623 11.1362 14.9379 11.5141 15.0025 11.8852L15.6591 15.6595C15.8208 16.5932 14.8271 17.3055 13.9775 16.8638L10.5389 15.0806C10.2018 14.9056 9.79802 14.9056 9.45993 15.0806L6.02128 16.8638C5.17166 17.3055 4.17799 16.5932 4.34066 15.6595L4.99625 11.8852C5.06092 11.5141 4.93647 11.1362 4.66306 10.8733L1.88098 8.19987C1.19305 7.53974 1.57131 6.38764 2.52186 6.25039L6.36916 5.69657C6.74644 5.64245 7.07277 5.40855 7.24132 5.07123L8.96016 1.63523C9.38546 0.785653 10.6133 0.785653 11.0386 1.63523Z" stroke="currentColor" stroke-width="1.33" stroke-linecap="round" stroke-linejoin="round"/>
</svg>
