<svg width="25" height="24" viewBox="0 0 25 24" fill="none" xmlns="http://www.w3.org/2000/svg">
<path d="M22.3947 12.0122C22.3947 12.644 22.1914 13.2783 21.7847 13.7861C21.7084 13.8858 21.3526 14.2965 21.073 14.5638L20.9205 14.7096C18.7853 16.9235 13.4728 20.2527 10.7784 21.3196C10.7784 21.3439 9.17703 21.9781 8.41447 22H8.3128C7.14354 22 6.05054 21.3706 5.49133 20.3499C5.1863 19.7886 4.9067 18.1604 4.88128 18.1385C4.65251 16.678 4.5 14.4423 4.5 11.9878C4.5 9.41434 4.65251 7.07898 4.93212 5.6452C4.93212 5.6209 5.21172 4.30863 5.38965 3.8712C5.66926 3.2418 6.17763 2.70474 6.8131 2.36452C7.32147 2.12394 7.85526 2 8.41447 2C8.9991 2.02673 10.0921 2.38882 10.5242 2.55893C13.3711 3.62819 18.8107 7.12758 20.895 9.2661C21.2509 9.60632 21.6322 10.0219 21.7339 10.1166C22.166 10.6513 22.3947 11.3074 22.3947 12.0122Z" fill="#7680FF"/>
</svg>
