<svg width="30" height="24" viewBox="0 0 25 24" fill="none" xmlns="http://www.w3.org/2000/svg">
<path fill-rule="evenodd" clip-rule="evenodd" d="M16.7969 15.5383C16.8778 17.3704 15.3992 18.9196 13.4946 18.9975C13.3543 19.0034 6.51531 18.9896 6.51531 18.9896C4.61996 19.1335 2.96115 17.7715 2.81165 15.9463C2.80039 15.8103 2.80346 8.47219 2.80346 8.47219C2.71949 6.63815 4.19604 5.08499 6.10163 5.00418C6.24396 4.99728 13.0738 5.01009 13.0738 5.01009C14.9783 4.86818 16.6423 6.24001 16.7897 8.07405C16.8 8.2061 16.7969 15.5383 16.7969 15.5383Z" stroke="currentColor" stroke-width="1.5" stroke-linecap="round" stroke-linejoin="round"/>
<path d="M16.8 9.97984L20.093 7.28484C20.909 6.61684 22.133 7.19884 22.132 8.25184L22.12 15.6008C22.119 16.6538 20.894 17.2308 20.08 16.5628L16.8 13.8678" stroke="currentColor" stroke-width="1.5" stroke-linecap="round" stroke-linejoin="round"/>
</svg>
