<svg width="24" height="16" viewBox="0 0 24 16" fill="none" xmlns="http://www.w3.org/2000/svg">
<path d="M5 16H13C15.757 16 18 13.757 18 11V5C18 2.243 15.757 0 13 0H5C2.243 0 0 2.243 0 5V11C0 13.757 2.243 16 5 16ZM24 4.313V11.632C24 12.389 23.58 13.069 22.903 13.407C22.62 13.548 22.316 13.618 22.014 13.618C21.593 13.618 21.177 13.483 20.825 13.219C20.788 13.191 20 12.409 20 12.409V3.544C20 3.544 20.786 2.755 20.825 2.726C21.429 2.272 22.224 2.199 22.903 2.538C23.582 2.877 24 3.556 24 4.313Z" fill="currentColor"/>
</svg>
