<svg width="25" height="24" viewBox="0 0 25 24" fill="none" xmlns="http://www.w3.org/2000/svg">
<g clip-path="url(#clip0_6122_13834)">
<path d="M7.87274 10.1066L4.44516 12.6773C4.10415 12.9352 3.62517 12.9023 3.32265 12.6001L0.75199 10.0295C0.416003 9.69349 0.416003 9.1487 0.75199 8.81266C1.08798 8.47668 1.63277 8.47668 1.9688 8.81266L3.27128 10.1151C4.31763 5.01563 9.29982 1.72991 14.3993 2.77627C16.1729 3.14021 17.8042 4.00723 19.0981 5.2737C19.4085 5.63086 19.3707 6.17209 19.0136 6.48256C18.6947 6.75981 18.2213 6.76318 17.8984 6.49047C14.8474 3.51854 9.96487 3.58265 6.99289 6.63365C6.05079 7.60083 5.37911 8.79837 5.04503 10.1066L6.84449 8.73553C7.22306 8.4516 7.76019 8.52829 8.04413 8.90692C8.32806 9.28554 8.25137 9.82262 7.87274 10.1066ZM24.248 13.954L21.6773 11.3834C21.3748 11.0812 20.8958 11.0483 20.5548 11.3062L17.1272 13.8769C16.7487 14.1608 16.6719 14.698 16.9558 15.0765C17.1177 15.2923 17.3716 15.4193 17.6414 15.4193C17.8268 15.4193 18.0072 15.3592 18.1555 15.2479L19.9636 13.894C19.0787 17.2975 16.0166 19.6811 12.5001 19.7038C10.4793 19.7086 8.53862 18.9138 7.10164 17.493C6.74009 17.1876 6.19944 17.2331 5.89409 17.5947C5.62143 17.9175 5.62475 18.3909 5.902 18.7098C7.65448 20.4528 10.0284 21.4271 12.5001 21.4176C16.9736 21.3897 20.8196 18.2401 21.7288 13.8598L23.0313 15.1709C23.3673 15.5069 23.912 15.5069 24.248 15.1709C24.584 14.8348 24.584 14.29 24.248 13.954Z" fill="white"/>
</g>
<defs>
<clipPath id="clip0_6122_13834">
<rect width="24" height="24" fill="white" transform="translate(0.5)"/>
</clipPath>
</defs>
</svg>
