<svg width="20" height="20" viewBox="0 0 20 20" fill="none" xmlns="http://www.w3.org/2000/svg">
<g clip-path="url(#clip0_6200_182007)">
<path d="M9.9999 6.45867V9.792M9.9999 13.1253H10.0082M8.5749 2.17533L1.51656 13.9587C1.37104 14.2107 1.29403 14.4964 1.29322 14.7874C1.2924 15.0785 1.3678 15.3646 1.51192 15.6174C1.65603 15.8703 1.86383 16.081 2.11465 16.2285C2.36547 16.3761 2.65056 16.4555 2.94156 16.4587H17.0582C17.3492 16.4555 17.6343 16.3761 17.8851 16.2285C18.136 16.081 18.3438 15.8703 18.4879 15.6174C18.632 15.3646 18.7074 15.0785 18.7066 14.7874C18.7058 14.4964 18.6288 14.2107 18.4832 13.9587L11.4249 2.17533C11.2763 1.93042 11.0672 1.72793 10.8176 1.5874C10.568 1.44687 10.2863 1.37305 9.9999 1.37305C9.71345 1.37305 9.43184 1.44687 9.18223 1.5874C8.93263 1.72793 8.72345 1.93042 8.5749 2.17533Z" stroke="#EB617A" stroke-width="1.25" stroke-linecap="round" stroke-linejoin="round"/>
</g>
<defs>
<clipPath id="clip0_6200_182007">
<rect width="20" height="20" fill="white"/>
</clipPath>
</defs>
</svg>
