<svg width="20" height="20" viewBox="0 0 20 20" fill="none" xmlns="http://www.w3.org/2000/svg">
<path d="M16.9233 12.2906V9.96284C16.9233 8.89034 16.6794 7.87482 16.2442 6.96869C15.1274 4.64387 12.7506 3.03906 9.9995 3.03906C8.26899 3.03906 6.68685 3.67378 5.47316 4.72313M16.9233 12.2906L14.6807 10.038M16.9233 12.2906L19.1666 10.038M14.4905 15.2324C13.2814 16.2639 11.7131 16.8866 9.9995 16.8866C7.24784 16.8866 4.87131 15.2814 3.75473 12.9567C3.31952 12.0506 3.07572 11.0351 3.07572 9.96284L3.07574 7.63511M3.07574 7.63511L0.833252 9.88765M3.07574 7.63511L5.31909 9.88765" stroke="#7680FF" stroke-width="1.25" stroke-linecap="round" stroke-linejoin="round"/>
</svg>
