<svg width="20" height="20" viewBox="0 0 20 20" fill="none" xmlns="http://www.w3.org/2000/svg">
<path d="M2.725 5.59159L10 9.79992L17.275 5.59159M10 18.1916V9.79159M17.5 13.1249V6.45825C17.4997 6.16598 17.4225 5.87893 17.2763 5.62589C17.13 5.37285 16.9198 5.16272 16.6667 5.01659L10.8333 1.68325C10.58 1.53697 10.2926 1.45996 10 1.45996C9.70744 1.45996 9.42003 1.53697 9.16667 1.68325L3.33333 5.01659C3.08022 5.16272 2.86998 5.37285 2.72372 5.62589C2.57745 5.87893 2.5003 6.16598 2.5 6.45825V13.1249C2.5003 13.4172 2.57745 13.7042 2.72372 13.9573C2.86998 14.2103 3.08022 14.4205 3.33333 14.5666L9.16667 17.8999C9.42003 18.0462 9.70744 18.1232 10 18.1232C10.2926 18.1232 10.58 18.0462 10.8333 17.8999L16.6667 14.5666C16.9198 14.4205 17.13 14.2103 17.2763 13.9573C17.4225 13.7042 17.4997 13.4172 17.5 13.1249Z" stroke="#7680FF" stroke-width="1.25" stroke-linecap="round" stroke-linejoin="round"/>
</svg>
