<svg width="24" height="25" viewBox="0 0 24 25" fill="none" xmlns="http://www.w3.org/2000/svg">
<g clip-path="url(#clip0_5928_137437)">
<path d="M23.7663 12.4852C23.7663 11.6695 23.7001 10.8494 23.559 10.0469H12.2402V14.6679H18.722C18.453 16.1582 17.5888 17.4766 16.3233 18.3144V21.3127H20.1903C22.4611 19.2227 23.7663 16.1362 23.7663 12.4852Z" fill="#4285F4"/>
<path d="M12.2401 24.2103C15.4766 24.2103 18.2059 23.1476 20.1945 21.3134L16.3276 18.315C15.2517 19.047 13.8627 19.4614 12.2445 19.4614C9.11388 19.4614 6.45946 17.3494 5.50705 14.5098H1.5166V17.6007C3.55371 21.6529 7.7029 24.2103 12.2401 24.2103Z" fill="#34A853"/>
<path d="M5.50277 14.5097C5.00011 13.0193 5.00011 11.4055 5.50277 9.91516V6.82422H1.51674C-0.185266 10.215 -0.185266 14.2098 1.51674 17.6006L5.50277 14.5097Z" fill="#FBBC04"/>
<path d="M12.2401 4.95864C13.9509 4.93219 15.6044 5.57595 16.8434 6.75765L20.2695 3.3316C18.1001 1.29449 15.2208 0.174518 12.2401 0.209793C7.7029 0.209793 3.55371 2.76721 1.5166 6.82379L5.50264 9.91473C6.45064 7.07071 9.10947 4.95864 12.2401 4.95864Z" fill="#EA4335"/>
</g>
<defs>
<clipPath id="clip0_5928_137437">
<rect width="24" height="24" fill="white" transform="translate(0 0.208984)"/>
</clipPath>
</defs>
</svg>
